<svg width="140" height="58" viewBox="0 0 140 58" fill="none" xmlns="http://www.w3.org/2000/svg">
<mask id="mask0_2004_450" style="mask-type:alpha" maskUnits="userSpaceOnUse" x="0" y="0" width="140" height="58">
<rect width="139.394" height="57.3977" fill="#D9D9D9"/>
</mask>
<g mask="url(#mask0_2004_450)">
<path d="M130.223 16.5838L131.201 18.2749L131.201 18.2757L130.768 18.5254L131.744 20.2163L132.176 19.9667L132.177 19.9658L133.153 21.6559L133.153 21.6568L132.719 21.9073L133.696 23.5979L134.129 23.3482L134.13 23.3474L135.106 25.0374L135.105 25.0383L134.672 25.2888L135.649 26.9794L136.082 26.7297L136.082 26.7289L137.058 28.4198L137.057 28.4207L136.625 28.6703L136.969 29.2659L136.625 29.8613L137.058 30.1113L136.082 31.8019L135.649 31.5519L134.673 33.2425L135.106 33.4925L134.129 35.1839L133.696 34.9339L132.72 36.6246L133.153 36.8746L132.177 38.5652L131.744 38.3152L130.768 40.0058L131.201 40.2558L130.224 41.9472L129.791 41.6972L128.815 43.3878L129.248 43.6378L128.272 45.3284L127.839 45.0784L126.863 46.7691L127.296 47.0191L126.32 48.7097L125.887 48.4597L124.911 50.1511L125.344 50.4011L124.367 52.0917L123.934 51.8417L123.591 52.4363L122.876 52.4371L122.876 52.9354L120.868 52.9357L120.869 52.4365L118.862 52.4373L118.862 52.9356L116.856 52.9363L116.856 52.4367L114.848 52.437L114.848 52.9366L112.842 52.9365L112.842 52.4369L110.835 52.4363L110.835 52.9355L108.829 52.9354L108.829 52.437L106.822 52.4365L106.821 52.9356L104.815 52.9364L104.815 52.4367L102.809 52.4366L102.808 52.9358L100.801 52.9366L100.801 52.4369L98.7952 52.4368L98.7946 52.936L96.7877 52.9354L96.7879 52.4371L94.781 52.4365L94.7812 52.9362L92.7744 52.9356L92.775 52.4364L90.7677 52.4367L90.7679 52.9363L88.761 52.9358L88.7617 52.4366L86.7543 52.4369L86.7545 52.9365L84.7468 52.9355L84.7474 52.4363L82.7409 52.437L82.7408 52.9354L80.7334 52.9356L80.7341 52.4365L78.7276 52.4372L78.7274 52.9355L76.7209 52.9363L76.7207 52.4366L74.7134 52.4369L74.7136 52.9366L72.7075 52.9365L72.7074 52.4368L70.7005 52.4362L70.6998 52.9354L68.6942 52.9367L68.694 52.437L66.6871 52.4364L66.6865 52.9356L64.68 52.9364L64.6798 52.4367L62.6738 52.4366L62.6731 52.9358L60.6666 52.9365L60.6664 52.4369L58.6604 52.4368L58.6598 52.936L56.6532 52.9367L56.6531 52.437L54.6462 52.4365L54.6464 52.9361L52.6395 52.9356L52.6402 52.4364L50.6328 52.4366L50.633 52.9363L48.6262 52.9357L48.6268 52.4366L46.6195 52.4368L46.6197 52.9365L44.612 52.9354L44.6126 52.4362L42.6061 52.437L42.6063 52.9367L40.5986 52.9356L40.5992 52.4364L38.5927 52.4372L38.5926 52.9355L36.5861 52.9363L36.5859 52.4366L34.5785 52.4369L34.5787 52.9365L32.5727 52.9364L32.5725 52.4368L30.5657 52.4362L30.5654 52.9367L28.5593 52.9366L28.5591 52.437L26.5523 52.4364L26.5516 52.9356L24.5451 52.9363L24.5449 52.4367L22.5389 52.4366L22.5383 52.9357L20.5318 52.9365L20.5316 52.4368L18.5256 52.4367L18.5249 52.9359L16.5184 52.9367L16.5182 52.437L15.803 52.4356L15.4593 51.8414L15.027 52.0902L14.05 50.3997L14.0508 50.4001L14.4836 50.1505L13.5079 48.4595L13.0738 48.7096L12.0973 47.0181L12.5309 46.769L11.5553 45.078L11.1224 45.3277L10.1454 43.6371L10.5796 43.3871L9.60258 41.6965L9.16892 41.9457L8.19409 40.2552L8.62691 40.0055L7.65074 38.3154L7.21793 38.5651L7.21708 38.5646L6.24056 36.8732L6.24141 36.8737L6.67422 36.624L5.69855 34.9331L5.26574 35.1827L4.28922 33.4913L4.72154 33.2425L3.74587 31.5515L3.31305 31.8012L2.33605 30.1106L2.76971 29.8614L2.42618 29.2651L2.76944 28.6705L2.33643 28.4205L3.31299 26.729L3.746 26.979L4.72208 25.2884L4.28906 25.0384L5.26514 23.3478L5.69815 23.5978L6.67422 21.9072L6.24121 21.6572L7.21729 19.9666L7.6503 20.2166L8.62686 18.5252L8.19385 18.2752L9.16992 16.5845L9.60293 16.8345L10.579 15.1439L10.146 14.8939L11.1221 13.2033L11.5551 13.4533L12.5312 11.7627L12.0981 11.5127L13.0747 9.82126L13.5077 10.0713L14.4838 8.38065L14.0508 8.13065L15.0269 6.44004L15.4599 6.69004L15.8036 6.09464L16.5185 6.09468L16.5183 5.59502L16.518 5.59369L18.5248 5.59426L18.5245 6.09477L20.5319 6.0945L20.5317 5.59484L20.5313 5.59351L22.5387 5.59324L22.539 5.59457L22.5387 6.09508L24.5452 6.09432L24.5451 5.59466L24.5447 5.59333L26.552 5.59306L26.5524 5.5944L26.5521 6.0949L28.5586 6.09414L28.5584 5.59449L28.5581 5.59315L30.5658 5.59422L30.5655 6.09472L32.5728 6.09445L32.5726 5.5948L32.5723 5.59346L34.5783 5.59355L34.5786 5.59489L34.5788 6.09454L36.5862 6.09428L36.586 5.59462L36.5856 5.59328L38.5916 5.59337L38.592 5.59471L38.5922 6.09437L40.5991 6.09494L40.5994 5.59444L40.599 5.59311L42.6059 5.59368L42.6062 5.59502L42.6064 6.09468L44.6124 6.09477L44.6127 5.59426L46.6192 5.59351L46.6196 5.59484L46.6198 6.0945L48.6258 6.09459L48.6261 5.59408L50.6326 5.59333L50.6329 5.59466L50.6331 6.09432L52.64 6.0949L52.6403 5.59439L52.6399 5.59306L54.6459 5.59315L54.6463 5.59448L54.6465 6.09414L56.6534 6.09472L56.6532 5.59506L56.6528 5.59373L58.6597 5.59431L58.6594 6.09481L60.6667 6.09454L60.6665 5.59488L60.6662 5.59355L62.6735 5.59328L62.6739 5.59462L62.6736 6.09512L64.6801 6.09436L64.6799 5.59471L64.6795 5.59337L66.6869 5.5931L66.6872 5.59444L66.6869 6.09494L68.6935 6.09419L68.6933 5.59453L68.6929 5.59319L70.7006 5.59426L70.7003 6.09476L72.7077 6.0945L72.7075 5.59484L72.7071 5.59351L74.7131 5.59359L74.7135 5.59493L74.7137 6.09459L76.721 6.09432L76.7208 5.59466L76.7205 5.59333L78.7265 5.59342L78.7268 5.59475L78.727 6.09441L80.7339 6.09499L80.7342 5.59448L80.7338 5.59315L82.7407 5.59373L82.7411 5.59506L82.7412 6.09472L84.7473 6.09481L84.7476 5.59431L86.7541 5.59355L86.7544 5.59488L86.7546 6.09454L88.7606 6.09463L88.7609 5.59413L90.7674 5.59337L90.7678 5.59471L90.768 6.09436L92.7748 6.09494L92.7751 5.59444L92.7748 5.5931L94.7808 5.59319L94.7811 5.59453L94.7813 6.09419L96.7882 6.09476L96.788 5.59511L96.7876 5.59377L98.7945 5.59435L98.7942 6.09485L100.802 6.09459L100.801 5.59493L100.801 5.59359L102.808 5.59333L102.809 5.59466L102.808 6.09516L104.815 6.09441L104.815 5.59475L104.814 5.59342L106.822 5.59315L106.822 5.59448L106.822 6.09499L108.828 6.09423L108.828 5.59457L108.828 5.59324L110.835 5.5943L110.835 6.09481L112.842 6.09454L112.842 5.59488L112.842 5.59355L114.848 5.59364L114.848 5.59497L114.849 6.09463L116.856 6.09436L116.856 5.5947L116.855 5.59337L118.861 5.59346L118.862 5.59479L118.862 6.09445L120.869 6.09503L120.869 5.59453L120.869 5.59319L122.876 5.59377L122.876 5.5951L122.876 6.09476L123.591 6.09346L123.934 6.68986L124.367 6.4402L124.367 6.43935L125.342 8.12981L125.343 8.13029L124.91 8.3808L125.887 10.0714L126.319 9.82124L127.296 11.5118L127.295 11.5127L126.863 11.7623L127.839 13.4538L128.271 13.2028L129.249 14.8934L129.248 14.8942L128.815 15.1439L129.791 16.8348L130.223 16.5838Z" fill="#D9D9D9" stroke="black" stroke-dasharray="2 2"/>
</g>
</svg>
